<svg width="28" height="28" viewBox="0 0 28 28" fill="none" xmlns="http://www.w3.org/2000/svg">
<path fill-rule="evenodd" clip-rule="evenodd" d="M0.754028 14C0.754028 10.487 2.14959 7.1178 4.63369 4.63369C7.1178 2.14959 10.487 0.754028 14 0.754028C17.5131 0.754028 20.8823 2.14959 23.3664 4.63369C25.8505 7.1178 27.246 10.487 27.246 14C27.246 17.5131 25.8505 20.8823 23.3664 23.3664C20.8823 25.8505 17.5131 27.246 14 27.246C10.487 27.246 7.1178 25.8505 4.63369 23.3664C2.14959 20.8823 0.754028 17.5131 0.754028 14ZM14 2.65403C11.8009 2.6541 9.64911 3.29329 7.80655 4.49384C5.96399 5.69438 4.51003 7.40453 3.62157 9.41624C2.7331 11.4279 2.44842 13.6545 2.80216 15.825C3.15589 17.9956 4.1328 20.0165 5.61403 21.642C6.51328 20.2335 7.75306 19.0744 9.2188 18.2718C10.6845 17.4692 12.3289 17.049 14 17.05C17.524 17.05 20.62 18.882 22.386 21.642C23.8673 20.0165 24.8442 17.9956 25.1979 15.825C25.5516 13.6545 25.267 11.4279 24.3785 9.41624C23.49 7.40453 22.0361 5.69438 20.1935 4.49384C18.3509 3.29329 16.1992 2.6541 14 2.65403ZM20.964 22.958C20.2563 21.7383 19.2404 20.7259 18.0182 20.0225C16.7959 19.3191 15.4102 18.9492 14 18.95C12.5898 18.9492 11.2042 19.3191 9.9819 20.0225C8.75966 20.7259 7.74377 21.7383 7.03603 22.958C9.02556 24.5094 11.4772 25.35 14 25.346C16.624 25.346 19.04 24.454 20.964 22.958ZM9.30003 12.01C9.30003 10.7635 9.79521 9.56805 10.6766 8.68663C11.558 7.80521 12.7535 7.31003 14 7.31003C15.2465 7.31003 16.442 7.80521 17.3234 8.68663C18.2049 9.56805 18.7 10.7635 18.7 12.01C18.7 13.2565 18.2049 14.452 17.3234 15.3334C16.442 16.2149 15.2465 16.71 14 16.71C12.7535 16.71 11.558 16.2149 10.6766 15.3334C9.79521 14.452 9.30003 13.2565 9.30003 12.01ZM14 9.21003C13.6323 9.21003 13.2682 9.28245 12.9285 9.42317C12.5888 9.56388 12.2801 9.77013 12.0201 10.0301C11.7601 10.2901 11.5539 10.5988 11.4132 10.9385C11.2725 11.2782 11.2 11.6423 11.2 12.01C11.2 12.3777 11.2725 12.7418 11.4132 13.0815C11.5539 13.4213 11.7601 13.7299 12.0201 13.9899C12.2801 14.2499 12.5888 14.4562 12.9285 14.5969C13.2682 14.7376 13.6323 14.81 14 14.81C14.7426 14.81 15.4548 14.515 15.9799 13.9899C16.505 13.4648 16.8 12.7526 16.8 12.01C16.8 11.2674 16.505 10.5552 15.9799 10.0301C15.4548 9.50503 14.7426 9.21003 14 9.21003Z" fill="#626262"/>
</svg>
