<svg width="26" height="28" viewBox="0 0 26 28" fill="none" xmlns="http://www.w3.org/2000/svg">
<path d="M13 1.75C14.1603 1.75 15.2731 2.21094 16.0936 3.03141C16.9141 3.85188 17.375 4.96468 17.375 6.125V7H8.625V6.125C8.625 4.96468 9.08594 3.85188 9.90641 3.03141C10.7269 2.21094 11.8397 1.75 13 1.75ZM19.125 7V6.125C19.125 4.50055 18.4797 2.94263 17.331 1.79397C16.1824 0.645311 14.6245 0 13 0C11.3755 0 9.81763 0.645311 8.66897 1.79397C7.52031 2.94263 6.875 4.50055 6.875 6.125V7H0.75V24.5C0.75 25.4283 1.11875 26.3185 1.77513 26.9749C2.4315 27.6313 3.32174 28 4.25 28H21.75C22.6783 28 23.5685 27.6313 24.2249 26.9749C24.8813 26.3185 25.25 25.4283 25.25 24.5V7H19.125ZM2.5 8.75H23.5V24.5C23.5 24.9641 23.3156 25.4092 22.9874 25.7374C22.6592 26.0656 22.2141 26.25 21.75 26.25H4.25C3.78587 26.25 3.34075 26.0656 3.01256 25.7374C2.68437 25.4092 2.5 24.9641 2.5 24.5V8.75Z" fill="#626262"/>
</svg>
