<svg width="24" height="27" viewBox="0 0 24 27" fill="none" xmlns="http://www.w3.org/2000/svg">
<path d="M23.9279 24.2688L16.1369 16.0559C17.3459 14.4082 17.9999 12.3937 17.9999 10.2748C17.9999 7.73854 17.0609 5.36036 15.3629 3.56723C13.6649 1.77411 11.403 0.787415 8.99996 0.787415C6.59697 0.787415 4.33498 1.77727 2.63699 3.56723C0.935996 5.35719 0 7.73854 0 10.2748C0 12.808 0.938996 15.1925 2.63699 16.9825C4.33498 18.7756 6.59397 19.7623 8.99996 19.7623C11.01 19.7623 12.9179 19.0729 14.4809 17.8015L22.2719 26.0113C22.2947 26.0354 22.3219 26.0546 22.3517 26.0676C22.3816 26.0806 22.4136 26.0873 22.4459 26.0873C22.4782 26.0873 22.5102 26.0806 22.5401 26.0676C22.5699 26.0546 22.5971 26.0354 22.6199 26.0113L23.9279 24.6357C23.9508 24.6116 23.9689 24.583 23.9813 24.5515C23.9936 24.52 24 24.4863 24 24.4522C24 24.4182 23.9936 24.3844 23.9813 24.353C23.9689 24.3215 23.9508 24.2929 23.9279 24.2688ZM13.7519 15.2842C12.4799 16.6219 10.794 17.3588 8.99996 17.3588C7.20597 17.3588 5.51998 16.6219 4.24798 15.2842C2.97899 13.9433 2.27999 12.166 2.27999 10.2748C2.27999 8.38369 2.97899 6.60321 4.24798 5.26548C5.51998 3.92776 7.20597 3.1909 8.99996 3.1909C10.794 3.1909 12.4829 3.92459 13.7519 5.26548C15.0209 6.60637 15.7199 8.38369 15.7199 10.2748C15.7199 12.166 15.0209 13.9465 13.7519 15.2842Z" fill="#626262"/>
</svg>
